<svg xmlns="http://www.w3.org/2000/svg" viewBox="0 0 512 512">
  <defs>
    <linearGradient id="bg" x1="0" y1="0" x2="1" y2="1">
      <stop offset="0%" stop-color="#1a1a2e"/>
      <stop offset="100%" stop-color="#2d9b8a"/>
    </linearGradient>
    <linearGradient id="accent" x1="0" y1="0" x2="1" y2="1">
      <stop offset="0%" stop-color="#e8673a"/>
      <stop offset="100%" stop-color="#f5a623"/>
    </linearGradient>
  </defs>
  <rect width="512" height="512" rx="112" fill="url(#bg)"/>
  <circle cx="372" cy="140" r="54" fill="#ffffff" fill-opacity="0.08"/>
  <path d="M120 334c36-52 74-92 122-124 25-17 49-31 78-42 14-5 29 5 29 20v149c0 11-9 20-20 20H141c-16 0-30-14-21-23z" fill="#f7f5f0"/>
  <path d="M166 308l58-63 53 38 68-90" fill="none" stroke="url(#accent)" stroke-linecap="round" stroke-linejoin="round" stroke-width="28"/>
  <circle cx="166" cy="308" r="16" fill="#f5a623"/>
  <circle cx="224" cy="245" r="16" fill="#f5a623"/>
  <circle cx="277" cy="283" r="16" fill="#f5a623"/>
  <circle cx="345" cy="193" r="16" fill="#f5a623"/>
</svg>
